#!Matlab matrix to amc conversion
:FULLY-SPECIFIED
:DEGREES
1
root 9.287220 16.950000 -34.276200 0.000000 0.000000 0.000000
lowerback 0.000000 0.000000 0.000000
upperback 0.000000 0.000000 0.000000
thorax 0.000000 0.000000 0.000000
lowerneck -16.000000 0.000000 0.000000
upperneck 21.000000 0.000000 0.000000
head 11.000000 0.000000 0.000000
rclavicle 0.000000 0.000000
rhumerus 0.000000 0.000000 0.000000
rradius 0.000000
rwrist 0.000000
rhand 0.000000 0.000000
rfingers 0.000000
rthumb 0.000000 0.000000
lclavicle 0.000000 0.000000
lhumerus 0.000000 0.000000 0.000000
lradius 0.000000
lwrist 0.000000
lhand 0.000000 0.000000
lfingers 0.000000
lthumb 0.000000 0.000000
rfemur 0.000000 0.000000 21.000000
rtibia 0.000000
rfoot 0.000000 0.000000
rtoes 0.000000
lfemur 0.000000 0.000000 -21.000000
ltibia 0.000000
lfoot 0.000000 0.000000
ltoes 0.000000
2
root 9.287220 16.950000 -34.276200 1.038589 1.634016 0.150309
lowerback -1.314636 2.523316 0.369475
upperback -2.763301 3.476666 -1.288816
thorax -1.952024 1.715414 -1.586786
lowerneck -16.889133 -1.320194 -2.148146
upperneck 33.499914 -1.032077 -0.452778
head 14.771704 -0.737297 0.030453
rclavicle -0.000000 0.000000
rhumerus -35.804525 -7.819703 -77.504310
rradius 30.570701
rwrist -9.672725
rhand -7.526548 13.154730
rfingers 7.125020
rthumb 18.356780 -15.962127
lclavicle -0.000000 0.000000
lhumerus -49.279682 29.583520 56.976259
lradius 28.132747
lwrist -2.785451
lhand -4.313988 23.199410
lfingers 7.125020
lthumb 21.416435 51.940534
rfemur 6.071364 9.916027 26.705185
rtibia 23.885590
rfoot -5.324512 -15.831717
rtoes -10.979124
lfemur -35.031048 -8.447241 -18.028169
ltibia 29.586345
lfoot -13.163781 19.855610
ltoes -3.308753
3
root 9.273270 17.016600 -33.905900 0.969209 1.634016 0.042437
lowerback -1.720322 2.309335 -1.116858
upperback -2.895444 3.143053 -1.595359
thorax -1.955615 1.577164 -1.004384
lowerneck -16.715730 -1.460770 -2.404176
upperneck 34.038544 -1.253387 -0.174727
head 14.998059 -0.827754 0.145245
rclavicle -0.000000 0.000000
rhumerus -37.148990 -11.192449 -76.089394
rradius 27.578820
rwrist -7.634257
rhand -7.372760 14.002942
rfingers 7.125020
rthumb 18.502701 -15.109707
lclavicle -0.000000 0.000000
lhumerus -47.291086 29.615298 58.301215
lradius 28.156048
lwrist -2.320447
lhand -3.505553 23.134895
lfingers 7.125020
lthumb 22.199606 51.813539
rfemur 2.465813 8.188540 25.160618
rtibia 32.157375
rfoot -1.348191 -15.253854
rtoes -9.929684
lfemur -33.094626 -8.127694 -20.364778
ltibia 30.424084
lfoot -12.922181 18.576236
ltoes -4.861085
4
root 9.268420 17.025800 -33.555600 0.757054 1.634016 0.058172
lowerback -1.993232 2.316362 -1.788323
upperback -3.123414 3.147332 -1.707223
thorax -2.088293 1.594980 -0.735491
lowerneck -15.907966 -1.593288 -2.528929
upperneck 34.113459 -1.578962 0.130052
head 14.824781 -0.934831 0.251170
rclavicle -0.000000 0.000000
rhumerus -38.781978 -11.989813 -75.579936
rradius 26.741941
rwrist -6.774662
rhand -5.669139 12.667000
rfingers 7.125020
rthumb 20.141246 -16.243867
lclavicle -0.000000 0.000000
lhumerus -44.609526 28.501180 60.863578
lradius 29.675544
lwrist -1.883970
lhand -2.394719 23.373775
lfingers 7.125020
lthumb 23.275349 51.899316
rfemur -3.818185 5.980654 23.767904
rtibia 40.754426
rfoot 0.665620 -14.846242
rtoes -9.738842
lfemur -30.895451 -7.881846 -21.548595
ltibia 30.205236
lfoot -14.425420 18.125968
ltoes -5.334920
5
root 9.249270 17.016300 -33.220600 0.618057 1.634016 0.064373
lowerback -2.270998 2.325869 -2.327224
upperback -3.343761 3.154436 -1.810035
thorax -2.209351 1.612449 -0.482625
lowerneck -15.155754 -1.723414 -2.624763
upperneck 34.192224 -1.898208 0.409532
head 14.657387 -1.039770 0.332883
rclavicle -0.000000 0.000000
rhumerus -40.373719 -12.718080 -75.115710
rradius 26.047526
rwrist -6.005666
rhand -4.008175 11.552708
rfingers 7.125020
rthumb 21.738629 -17.169906
lclavicle -0.000000 0.000000
lhumerus -42.156803 27.456199 63.295169
lradius 31.123635
lwrist -1.499847
lhand -1.305657 23.577632
lfingers 7.125020
lthumb 24.329874 51.951315
rfemur -9.941570 3.937296 22.607102
rtibia 48.587785
rfoot 1.239339 -14.539340
rtoes -9.513286
lfemur -28.789893 -7.689012 -22.576230
ltibia 30.066175
lfoot -15.888908 17.734131
ltoes -5.686080
6
root 9.246830 17.017700 -32.897400 0.509931 1.634016 0.065008
lowerback -2.557487 2.339009 -2.846423
upperback -3.563236 3.165086 -1.909612
thorax -2.321841 1.631482 -0.232491
lowerneck -14.420642 -1.853192 -2.698260
upperneck 34.275752 -2.218067 0.686164
head 14.493602 -1.144372 0.401929
rclavicle -0.000000 0.000000
rhumerus -41.968674 -13.402963 -74.681079
rradius 25.425061
rwrist -5.269242
rhand -2.323738 10.492607
rfingers 7.125020
rthumb 23.358388 -18.032909
lclavicle -0.000000 0.000000
lhumerus -39.652295 26.403662 65.737496
lradius 32.644108
lwrist -1.072008
lhand -0.192954 23.751924
lfingers 7.125020
lthumb 25.407054 51.970962
rfemur -16.103961 1.869203 21.479725
rtibia 56.372067
rfoot 0.644944 -14.180185
rtoes -9.222880
lfemur -26.698050 -7.518138 -23.573419
ltibia 29.970401
lfoot -17.384709 17.379911
ltoes -6.122606
